<?xml version="1.0" encoding="utf-8"?>
<!-- Generator: Adobe Illustrator 28.1.0, SVG Export Plug-In . SVG Version: 6.00 Build 0)  -->
<svg version="1.1" id="Layer_1" xmlns="http://www.w3.org/2000/svg" xmlns:xlink="http://www.w3.org/1999/xlink" x="0px" y="0px"
	 viewBox="0 0 704.5 790.1" style="enable-background:new 0 0 704.5 790.1;" xml:space="preserve">
<style type="text/css">
	.st0{fill:#FFFFFF;}
</style>
<g>
	<path class="st0" d="M322.8,501.4c-0.1,0.8-0.2,2.2-0.2,3.2c-79.3-79.3-158.5-158.5-239.4-239.4c0.7-0.3,2.8-0.7,4-1.9
		c63.6-63.4,127.1-126.9,190.5-190.5c2.1-2.1,3.8-2.4,6.8-1.9c5.9,0.9,12,1,17.9,0.4c5.4-0.6,7.6,3.6,11.1,5.8
		c3.9,2.5,7.9,4.9,11.9,7.3c5.9,3.6,9,9.4,12.4,15.1c2.5,4.2,6.6,7.7,10.7,10.5c3.8,2.6,7.8,4.8,8.4,9.8c0.2,1.9-0.5,4.4-1.8,5.7
		c-1.1,1-3.6,0.8-5.4,0.8c-2.9,0.1-6.2-1-8.5,0.1c-3.9,1.9-5.7,0-8.2-2.2c-1.7-1.6-3.9-2.5-6-3.7c-1.2-0.7-3.2-0.9-3.7-1.9
		c-2.6-5-6.3-6.5-11.6-4.5c-0.5,0.2-1.2-0.1-1.9-0.2c0-3,0-5.9,0-9.7c-2.4,1.7-3.7,2.6-5.3,3.8c-3-3.8-6.1-4.7-10.3-1.1
		c-1.5,1.3-4.8,0.8-7.3,0.8c-6.8,0.1-13.8-1-20.4,0.1c-7.9,1.4-15.6,3.7-20.9,11.2c-6.1,8.6-7.2,14.3-1.1,22.7
		c2.5,3.4,7,5.8,11.1,7.3c6.9,2.6,11.8,7.3,15.8,12.9c3.5,4.9,5.7,10.7,12,12.9c0.4,0.2,0.8,0.6,1.2,0.9c4.5,4.1,9.4,8,13.4,12.5
		c3.1,3.5,5.4,7.9,7.8,12c2.8,4.8,4.3,5.1,8.1,1.3c4.2,2.2,8.1,4.9,12.5,6.3c3.5,1.1,7.5,0.6,11.2,0.9c3.9,0.2,7.8,0.6,11.8,0.8
		c4.4,0.2,8.8,0.8,13.1,0.4c4.3-0.4,8.8-1.4,12.8-3c2.8-1.1,5.1-3.5,7.5-5.6c2.1-1.9,3.9-2.5,6.6-0.9c3.9,2.3,7,0.3,9.1-3.2
		c3.4-5.7,4.4-5.9,10.9-4c3.4,1,7.1,2.2,10.6,1.9c7-0.6,16.1-10.6,18.2-17.5c1.3-4.4,4.8-8.1,6.9-12.2c1-2,1.3-4.3,1.8-6.6
		c0.4-1.7,0.6-3.5,0.9-5.2c0.6-3.6,1.3-7.1,1.8-10.7c0.1-0.9-0.3-2.1-0.9-2.7c-9.2-9.2-18.5-18.3-27.7-27.6c-3.3-3.3-6.4-6.9-9-10.7
		c-9.5-13.6-24.2-19.4-38.5-25.8c-2.1-0.9-4.1-2.2-6.1-3.3c-1.7-1-3.3-2.4-5.2-2.9c-7.6-2.1-15.4-3.8-23-5.9
		c-1.9-0.5-3.6-2.1-5.4-3.2c-1.4-0.9-2.8-1.8-4.2-2.7c-0.7,1.5-1.4,2.9-2.3,4.8c-7.3,0.4-15.2,2.3-22.7-2.4
		c-1.7-1.1-4.5-0.2-6.8-0.4c-1.7-0.2-3.4-0.8-5-1.2c20-19.9,39.7-39.6,59.1-58.9c59.5,59.5,119.5,119.5,180,180
		c-3.4,2.6-7.5,5.7-11.6,9c-0.8,0.6-1.4,1.4-1.9,2.2c-4.6,7.5-10,14.6-13.6,22.5c-3.2,7-4.8,14.8-6.2,22.5c-1.3,7.7-1.8,15.5-2,23.3
		c-0.1,4.7,1.1,9.4,1.9,14.1c1,5.4-1.9,9.6-4.2,13.9c-1.6,2.9-3.2,5.8-4.9,9c2.4,1.2,4.3,2.1,7.4,3.6c-2.9,1.3-4.6,2-6,2.7
		c-1.1,8.4-2.3,16.7-3.1,25c-0.2,2.5,0.7,5.2,1.1,7.8c0.1,0.8,0.4,1.6,0.2,2.3c-1.9,6.7-1.9,6.7,4.8,8.8c2.5-3.2,4.2-6.5,2.8-10.9
		c-1.5-4.5,1.3-7.3,4.6-9.5c2.8-2,3.4-3.4-0.2-5.2c-5-2.5-2.2-7.3-0.9-9.5c4.4-7.2,1.5-12.2-3.7-17.5c1.1-0.6,2.1-1,2.9-1.7
		c1.8-1.5,3.6-3,5-4.7c2.2-2.8,3.8-6.3,6.4-8.5c2-1.7,4.6-1.2,7.9-0.1c7.4,2.6,8.3,8.7,10.8,14.2c2.4,5.3,7,8,12.3,9.4
		c3.7,1,6.1,2.4,7.1,6.5c0.8,3.6,2.5,6.7,7.5,7.2c3.3,0.4,6.4,3,9.6,4.6c-27.1,27-53.7,53.6-80.5,80.2c0.1-1.4,0.2-3.2,0.5-5
		c1.4-10.4,3-20.7,4.3-31.1c0.4-2.9,0.8-6,0.1-8.8c-0.4-1.8-2.6-3.5-4.4-4.5c-0.7-0.4-2.7,0.7-3.8,1.6c-3.7,3.1-6.8,7-10.8,9.4
		c-11.1,6.6-22.7,12.2-35,16.2c-0.9,0.3-2,0.6-2.9,0.3c-6.3-2.2-12.6-4.4-18.8-6.8c-0.9-0.4-1.4-2.1-1.8-3.3
		c-4.3-10.2-10.5-18.8-19.7-24.9c-3.8-2.5-8-2.7-12.2-0.1c-1.7,1-4.5,1.8-6.1,1.2c-5.3-2.2-10.3-5.1-15.4-7.9
		c-1.3-0.7-2.4-1.7-3.7-2.6c-0.8,1.7-2.4,3.6-2.2,5.2c1,7.3,2.5,14.5,7.9,20.1c4.2,4.4,8.5,8.3,14.5,10.9
		c12.5,5.4,17.2,16.6,17.6,29.5c0.3,9.9,5.6,18.5,14.1,23c5.5,2.9,11.9,5.4,13.2,13.2c0.3,1.8,3.6,3.2,6.3,5.4
		c-5.5,0-10.4-0.1-15.2,0c-2,0-4.3-0.1-5.9,0.8c-5.6,3.3-9.5,0.5-13.4-2.9c-5.3-4.6-10.4-9.3-15.8-13.7c-0.7-0.6-2.6-0.4-3.5,0.2
		c-5,3.2-9.6,5.3-15.3,0.9c-1.6-1.3-5.4-0.9-7.6-0.1c-4.5,1.7-8.3,1.2-12.4-0.9c-1.6-0.9-3.9-1.1-5.8-0.8c-11,1.7-21.7,2.2-32.2-2.6
		c-5.4-2.4-11.1-4-16.8-5.8c-5.1-1.5-13.5,6.6-11.6,11.4c0.7,1.8,3.4,3.8,5.4,4c4.2,0.3,6.8,2.2,9.8,4.9
		c7.3,6.6,15.5,11.7,25.7,13.1c7.3,1,14.7,1.8,21,7c2.7,2.3,7.2,2.4,10.6,4c2.8,1.3,5.3,3.4,7.9,5.1c1,0.6,2.2,1.7,3,1.5
		c9.1-2.9,12.3,4.9,16.5,9.7c4,4.6,4,5.1,9.8,2.8c1.9-0.8,4.8,0,6.9,0.9c4,1.5,7.8,3.6,11.3,5.2c-7.7,7.5-15.8,15.4-24.6,24.1
		c-1.4-2.4-2.9-5.5-4.8-8.4c-1.1-1.7-2.4-3.3-4-4.4c-2.3-1.7-16.1,1.1-18.7,1.6c-3.1,0.6-6.6-1-10-1.6c-1.6-0.3-3.3-1.3-4.7-0.9
		C329.8,498.4,326.7,499.9,322.8,501.4z"/>
	<path class="st0" d="M270.1,721.9c-0.7-11.4-1.2-22.8-2.2-34.2c-2.3-28.4-4.7-56.7-7.2-85c-0.1-1.5-0.7-3.4-1.8-4.4
		c-17.3-15.4-30.7-33.5-40.5-55c0,13.5,0.4,26.5-0.1,39.4c-0.5,13-1.4,26-3.2,38.8c-1.8,12.9-5,25.6-8.1,38.2
		c4.8-74.7,2-148.7-13.4-222.3c1.3,2.9,3,5.6,3.9,8.6c5.8,18.9,11.5,37.8,17.1,56.7c7.6,25.5,19,49,36.6,69.2c0.9,1,1.7,2,2.7,3
		c0.3,0.3,0.8,0.6,2.2,1.6c-18.1-82.4-52.3-154.9-113.5-214c0,1-0.1,1.4,0,1.7c19.6,27.3,30.2,58.4,37.9,90.5
		c12,49.8,14.3,100.4,13,151.3c-0.7,27.1-2.5,54.2-3.7,81.3c-0.5,0-0.9,0.1-1.4,0.1c-0.5-5.1-1.1-10.3-1.4-15.4
		c-1.1-18.3-0.9-36.7-3.2-54.8c-8.2-64.9-29-124.3-79.4-169.6c-2.7-2.4-5.3-5-8.4-7.3c20,54.6,30.2,110.3,19,168.4
		c-1.4-7.3-2.5-14.7-4.2-21.9c-6.4-27.2-22.2-46.8-47.7-58.4c-27.3-12.5-46.7-32.5-58.2-60.2c-2.2-5.5-3.7-11.2-4.9-17
		c5,8.2,9.6,16.7,15.1,24.5c12.9,18.5,29.5,32.9,50.2,42.2c17,7.6,33.1,16.4,42.7,33.6c0.4-0.1,0.8-0.3,1.3-0.4
		c-1-9.5-1.6-19-2.9-28.4c-5.2-37.5-20-71.9-36-105.7c-13-27.5-26.1-54.9-34.1-84.4c-6.4-23.5-10.9-47.2-12.6-71.5
		c-1.7-25.3-1.4-50.5,2.1-75.7c0.3,4.9,0.5,9.9,0.9,14.8c1.7,21.4,2.4,42.9,5.4,64.1c7.7,54.9,24.5,106.7,59.8,150.7
		c9.5,11.9,21,22.3,31.6,33.3c27.7,28.5,44.9,62.8,55.3,100.9c0.5,1.7,1,3.4,2.4,4.9c-0.8-9.6-1.1-19.2-2.4-28.6
		c-3.7-26.7-7-53.4-11.9-79.9c-5.4-29-13.7-57.2-28.6-83c-1.6-2.9-3.5-5.6-5.2-8.4c0.3-0.4,0.6-0.7,0.9-1.1
		c9,6.9,18.4,13.3,26.8,20.8c48,42.7,79.1,96.1,97,157.2c5.4,18.4,8.3,37.6,12.6,56.4c0.5,2.4,2.1,4.8,3.8,6.6
		c2.8,3,6.2,5.4,9.8,8.5c-5.2-47.5-15.9-92.5-36.5-134.8c0.5-0.3,0.9-0.5,1.4-0.8c5.9,9.1,12.3,17.9,17.6,27.3
		c16.3,29.2,25,60.8,28.6,93.9c0.8,7.6,1.1,15.3,2,22.9c0.3,2,1.7,4.3,3.2,5.7c11.6,11.2,23.3,22.4,30,37.6c0.4-0.1,0.9-0.2,1.3-0.3
		c-1.2-11-2.2-22.1-3.6-33.1c-1.4-11.1-2.8-22.1-4.8-33.1c-2-11.1-4.1-22.3-7.3-33.1c-3.1-10.6-7.4-20.8-11.7-32.4
		c4.2,6.7,8.3,12.3,11.6,18.5c10.3,19.7,15.1,41.1,19.1,62.8c10.9,59.1,11,118.6,6.3,178.2c-0.2,2.8-0.3,5.6-1.4,8.4
		c-0.2-1.1-0.5-2.3-0.6-3.4c-2.1-29.2-3.8-58.5-6.2-87.7c-2.1-25.5-14.4-48.7-35.7-68.1c-1,22.5-3.3,44.3-9.9,65.5
		c-0.1-1.5-0.2-3-0.2-4.5c-0.4-21.5-1.2-43-0.9-64.4c0.1-9.6-7-12.1-13.3-17.6C276.6,648,273.6,684.9,270.1,721.9z"/>
	<path class="st0" d="M522.5,391.2c-1,19.1-0.9,38.2-3.1,57.2c-3.9,33.7-14.9,65.4-31.7,94.9c-11.3,20-25,38.1-41.3,54.3
		c-1.4,1.4-2.7,3.5-2.8,5.4c-1.8,23.7-3.7,47.4-5,71.2c-0.7,13-0.6,26-0.8,39c0,1.4,0,2.8,0,4.6c32.4-25.2,52.4-80.5,48.7-142.5
		c-8.1,9.6-14.5,19.3-19.2,30c-4.6,10.7-8.2,21.9-11.5,30.8c-1.5-24.4,16.2-63.9,43.1-90.3c0.4,6.7,1.1,12.7,1.2,18.7
		c1,41.8-5.1,82.3-24.4,120c-9.7,18.8-22.7,34.8-40.5,46.6c-1.6,1.1-3.3,2-5.7,3.5c0-41.2,0-81.6,0-122.2
		c-4.1,3.2-8.8,6.7-13.1,10.7c-1.2,1.1-1.4,3.7-1.3,5.5c0.5,20.5,1.2,41,1.8,61.4c0,1.3,0,2.5,0,3.8c-0.5,0.1-1.1,0.2-1.6,0.3
		c-3.8-19.6-7.6-39.2-11.4-58.9c0.2-0.1-0.3-0.1-0.6,0.1c-16.1,17.1-29.2,36.3-32.8,59.9c-2.5,16.2-2.7,32.8-3.7,49.3
		c-0.9,15.1-1.3,30.2-3,45.4c-0.8-19.7-1.8-39.4-2.2-59.1c-0.5-24.1-1.9-48.4-0.5-72.4c3.4-58,19.1-112.1,55.5-158.5
		c8.3-10.6,19.3-19.3,29.1-28.7c3.6-3.4,7.4-6.6,11.6-9.5c-12.8,21.7-26.7,42.8-32.3,67.9c-5.4,24.6-8.2,49.4-9.5,74.4
		c0.4,0.2,0.8,0.5,1.2,0.7c5.4-5,11.5-9.5,16.1-15.2c2.3-2.9,2.1-7.9,2.8-12c11.1-64.1,34.8-122.6,75.4-173.9
		c3.3-4.1,6.2-8.5,9.3-12.8C521.1,390.8,521.8,391,522.5,391.2z M449,571.4c30.9-22,67.4-111.4,58-141.1
		C478.5,473.4,460,520.4,449,571.4z M408.7,535.6c-22.4,37.6-34.3,78.3-36.9,122c7.5-15.3,18-28.2,30-40c0.9-0.9,1.4-2.6,1.4-3.9
		C402.2,587.4,404.3,561.4,408.7,535.6z"/>
	<path class="st0" d="M525,543.6c5.5-18,12.2-35.5,21.6-51.8c10.6-18.3,23.7-34.7,39.4-48.8c34.2-30.6,56.4-68.7,70.8-111.7
		c10.8-32.4,16.8-65.7,19.2-99.7c1.1-15.8,1.7-31.6,2.8-47.5c0.6,5.7,1.4,11.4,1.8,17.1c2,29.2,0.6,58.2-3.5,87.1
		c-6.5,45.7-21.3,88.6-42.1,129.7c-16,31.5-29.1,64.2-35.6,99.1c-2,10.4-2.9,21-4.3,31.6c0.7,0.4,1.3,0.8,2,1.2
		c0.2-0.8,0.3-1.6,0.7-2.3c6.4-11.9,16.8-19,28.8-24.3c13.3-5.8,26.4-11.8,37.8-21.1c16.2-13.3,28.6-29.7,37.8-48.5
		c0.5-1,1-2,2.5-2.7c-1.1,3.9-2,7.9-3.3,11.7c-10.3,28.5-28.6,50-56.1,63.3c-12.8,6.2-25,13.3-34.2,24.4
		c-11.8,14.1-17.2,30.9-20.1,48.7c-0.4,2.8-0.8,5.6-1.7,8.3c-10.4-58.7,1.3-114.6,22.1-170.8c-2,1.8-3.1,2.8-4.1,3.8
		c-1.1,1-2.1,2.2-3.2,3.1c-41.9,36.2-64.9,83-77.1,136.1c-6.8,29.7-9.3,59.8-9.9,90.1c0,2.3-0.1,4.7-0.3,7c-0.2,2.8-0.6,5.6-1.4,8.4
		c-0.6-10.8-1.7-21.5-1.8-32.3c-0.3-33.5-1.9-67,0.1-100.4c3.6-58.5,18.5-114.5,44.4-167.3c19.2-39.2,43.6-74.7,75.5-104.8
		c4.3-4.1,9-7.8,14.1-11.3c-14.2,18.2-27.7,36.6-33.6,59.5c-5.8,22.5-7.2,45.2-5,69.7c16.7-21.5,28.2-43.9,34-69.2
		c-3,32.6-17.6,60.1-38,86.4c-7.2-27.3-7.6-53.6-2.3-80.3C558.3,398,534.8,468.3,525,543.6z"/>
	<path class="st0" d="M99.4,412.2c-14.2-16.3-35.4-55.2-37.9-75.8c10.1,18,21.3,38.1,32.5,58.1c0.7-0.2,1.4-0.5,2.1-0.7
		c2.9-17,2.5-34-0.9-51c-3.4-17.1-9.9-32.8-19.8-48.8C103.9,321.6,113.5,373.4,99.4,412.2z"/>
	<path class="st0" d="M289.7,136.3c5.9-1.7,11.9-3.3,17.8-5.2c9-2.9,18.2-2.2,27-0.2c7.3,1.6,14.6,4.3,19.6,10.8
		c0.9,1.2,3.1,2.1,4.6,2c2.9-0.2,5.1,0.7,4.7,3.4c-0.2,1.6-2.5,3.7-4.2,4.2c-8.3,2.5-16-1-23.7-3.3c-7.1-2.1-14.1-4.8-21.2-6.8
		c-2.2-0.6-5-0.2-7.2,0.5c-6.7,2.1-11.5-2.9-17.5-2.9C289.7,138,289.7,137.2,289.7,136.3z"/>
	<path class="st0" d="M346.4,185.8c-1.7,0.8-2.3,1.3-2.5,1.2c-4.9-3.8-10.3-2.3-15.9-1.9c-5.8,0.4-10.3-3.3-14.4-8
		c5.3-2.6,9.7-1.8,14.2,0.4c3.3,1.6,6.9,2.6,10.2,4.1C340.6,182.7,343,184,346.4,185.8z"/>
</g>
</svg>
