<?xml version="1.0" encoding="UTF-8"?>
<svg id="Layer_10" data-name="Layer 10" xmlns="http://www.w3.org/2000/svg" width="112.7mm" height="111.4mm" viewBox="0 0 319.6 315.8">
  <defs>
    <style>
      .cls-1 {
        fill: #fff;
        stroke-width: 0px;
      }
    </style>
  </defs>
  <path class="cls-1" d="M54.8,160.7c.8-1.9,1.6-3.8,2.4-5.8,11.7-35.3,6.4-77-9-110.2,8.9,31.4,11.2,67.4,1.3,98.6-.7,2.2-1.5,4.4-2.4,6.5-7.1-9.9-14.1-19.8-19.2-30.9C9.6,82.4-1.5,41.3,10.3.7-1.4,26.4-2.4,56.4,3.7,83.8c4.2,21.1,14.1,40.3,25.1,58.5,3.8,7,8.3,13.2,12.8,19.4-1.9,4-3.9,7.9-5.6,12-9.2,21.2-15.2,44.8-13.6,68.1,1.5,23.2,10.1,45.1,21.6,65-12.6-31.5-19-64.4-9-97.5,3.4-12.7,9-24.7,14.5-36.7.9,1.3,1.9,2.7,2.8,4.1,26.4,41,28.6,90.5,29.7,138.3,6.3-48.5,5.9-101-20.5-144-2.1-3.5-4.4-6.9-6.7-10.3Z"/>
  <path class="cls-1" d="M318.5,155.3c-2.5-24.9-8.5-49.6-17.1-73.1C289.9,53.9,277.2,19.5,252.6,0c0,0,0,0,0,0t0,0s0,0,0,0c1.4,5.5,3.5,10.7,5.8,15.7,8.7,27.2,11.7,55.6,13.5,84.2,1.3,21.5.7,43.1-1.5,64.6-.5-2.4-1-4.9-1.6-7.3-11.1-44.5-33.5-85.4-61.9-121.1,0,0-20.1-25-20.1-25,6.7,16.7,16.9,41.1,22.7,57.8,15.7,45.1,21.4,88.6,16.9,132.7-5.7-1.4-11.3-3.3-16.5-5.9,5.5-33.8,2-68.8-12.7-101.9-4.3-9.2-9-18.4-14.7-26.9-1.6-2.4-3.3-4.8-5-7.2,4.2,10.8,8.8,21.4,12.1,32.3,11.3,33.6,14.3,66.1,10.4,97.6-4-3-7.6-6.4-10.7-10.5-6.2-7.9-10.4-17.8-12.6-27.8-1.6-6.1-2-13.2-3.2-19.4-6.2-36.6-33.1-68.8-69.7-77.6,33.1,16.3,57.2,48.6,60.2,85.7.8,6.7,1.8,14.2,3.8,20.6,5,18.2,15.9,32.1,30.5,40.9-7.2,40.2-25.7,78.4-52.4,114.3,31-29.9,53.1-68.4,62.1-109.4,5.4,2.2,11.2,3.9,17.4,4.9-2.7,20.1-7.5,40.4-14.5,61.1,35.8-58.9,33.9-132.6,12.4-197.1,16.2,26.1,29.3,54.3,36.5,84.1,7.3,25.5,5.3,63.8,5.7,90.3l9.1-46c4.7-25.9,7.1-51.8,7.7-78.1,1.2-25.5,0-52.4-6.7-77.4,4.8,9,9.6,18.1,13.3,27.7,15.9,38.3,23.9,80.3,20.8,121.8-.1,1.6-.5,6.2-.7,7.7-1.3,7.6-2.7,15.3-4.2,22.9-7.2,30.4-17.6,60-33.1,87.4,20.4-20.1,33.9-47,41-74.7,7-27.9,8.3-57.1,6-85.7Z"/>
  <path class="cls-1" d="M114.4,75.3l-3.2-3-3.2,3c-25.9,24.1-38.7,50-38,77,1.1,43.6,36.6,73.8,38.1,75.1l3,2.5,3-2.5c1.5-1.3,37-31.5,38.1-75.1.7-27.1-12.1-53-38-77ZM111.2,217.3c-8.3-8.1-30.9-33-31.7-65.2-.6-23.1,10.1-45.6,31.7-66.8,21.6,21.2,32.3,43.6,31.7,66.7-.8,32.2-23.4,57.2-31.7,65.3Z"/>
</svg>