<?xml version="1.0" encoding="UTF-8"?>
<svg id="Layer_10" data-name="Layer 10" xmlns="http://www.w3.org/2000/svg" width="136.2mm" height="116.5mm" viewBox="0 0 386.1 330.2">
  <defs>
    <style>
      .cls-1 {
        fill: #fff;
        stroke-width: 0px;
      }
    </style>
  </defs>
  <path class="cls-1" d="M41.4,60.2c1.2-10.5,3.5-20.2,7.5-30.3-16.6,12.7-20.2,45.9-6,61.3-2.8-10.3-2.4-20.6-1.5-31.1Z"/>
  <path class="cls-1" d="M70.1,254.8c-.5,3-1.6,7.5-1.6,10.5,18.4-30.9,24.6-69.7,12.2-104-7-20.2-17.5-39.4-31.8-55.2,6,12.7,11.6,25.4,15.9,38.3,7.9,26,10.7,52.8,9.3,79.7-.7,10.2-2.1,20.5-4,30.6Z"/>
  <path class="cls-1" d="M91.3,274.8c-15.7-3.1-31.5-1.2-42.8,7,.6-3.9,1.1-7.8,1.6-11.7,4.7-38.9-1.7-75.8-21.7-109.8C-.3,107.7,3.2,52.9,29.5,0-2.5,46.9-9.7,104,14,156.2c5.3,11.9,12.4,23.7,16.5,36.1,12.2,33.5,4.1,104.2,4.1,104.2l-5.1,33.8c5.6-15.3,9.6-25.7,17.1-32.7h0c1.7-1.6,3.5-3.2,5-4.7,9.6-9.8,24.8-10.1,37.9-7.8,4.1.7,8.4,1,12.7.5,21.3-1.4,27.6-24.7,29.6-42.2-7.1,18.2-18.3,35.5-40.5,31.4Z"/>
  <path class="cls-1" d="M143.2,165.3c-2.2-1.4-5.4-3.1-7.7-4.2-16.6-7.7-30.3-19.1-37.5-36.1-8.7-20.7-7.2-44.5-1.1-66.1,16.9,18.7,50.7,12.3,71.3,1.2-20.8,3.9-46.8,7.2-63-9-3.7-3.9-8.2-11.3-11.5-15.8,0,0-3.2,9.3-3.2,9.3-6.9,16-10.8,33.2-11,50.6-.7,31.3,14.5,59.1,42.2,74,0,0,7.5,4,7.5,4,15.8,8,30,20.2,36.9,36.9,5.6,12.9,6.7,27.6,4.8,41.7-8.1-21-23.5-42.7-45.4-41.8-22.6,2.5-34.1,27.8-39.9,46.8,10.1-12.2,28.3-39.7,45.8-31.9,8.1,3.9,14.3,12.9,19.3,20.7,5.7,8.9,10.6,18.9,15.6,28.3,0,0,3.7,14,3.7,14,0,0,6.1-13.5,6.1-13.5,17.3-41.2,6.7-85.8-33-109.1Z"/>
  <path class="cls-1" d="M346.8,0c9.1,35.9,17.7,71.2,22.7,107.7,5.5,41.3,9.4,104.2-.3,149.1-.6-15.9-2.6-51.7-5.1-67.4-5.5-34.9-14-73.8-31.2-104.8-11.8-20.7-26-40.6-45-55.3,0,0-15.7-11.4-15.7-11.4,12,25.1,20.2,52.7,25.2,80,12.3,64.7,8.7,138.9,5,204.3,21-68.4,20.3-171-.7-239.3-.5-1.8-1.1-3.5-1.7-5.2,35.8,46.3,47.9,99.1,57,163.1,6.7,47.3,5.2,67,1.5,96.4,4.4-11.7,13.1-32.1,16-44,22.9-85.7,11.7-193.8-27.5-273.2Z"/>
  <path class="cls-1" d="M283.6,143.3c4.2.6,8.4,1.4,12.6,2.7-7.2-5.1-15.8-8-24.3-10.2-9.9-2.4-20.1-3.2-30.2-2.9-3.7-21.6-10.3-42.5-21.3-61.4,20.4,5.4,44.6,1.4,55-18.7-18.2,19.4-44.6,13.4-65.9,3.2l-19-12s12.2,19.6,12.2,19.6c13.5,21.5,21.1,45.5,25,70.3-2.2.3-4.6.6-5.8.7-2.1.4-7.7,1.5-9.9,1.9-2,.5-4.1,1-6.3,1.6-6.3-35.1-17.1-69.4-30.9-102.1,8.1,34.7,13.8,70,17.7,105.5-33,6.7-59.1-21.9-75.8-47.1,8.5,30,32.1,60.7,65.4,62.7,4,.2,8,0,11.9-.7.3,3.5.7,6.9,1,10.4,3.6,32.6,5.7,65.6,1.2,98.2-1.5,10.9-3.7,21.7-6.7,32.5,5-10,8.9-20.5,12-31.4,8.9-32.6,10.7-67.1,8.1-100.7-.5-4.3-1-8.5-1.6-12.7.6-.2,1.2-.4,1.6-.5,2.9-1,8.9-2.9,11.9-3.7,1.5-.5,4.5-1.3,6-1.6.6-.1,1.2-.3,1.8-.4,2.6,23.4,2.3,47.2.9,70.3-1.4,21.3-4.4,42.9-8.3,63.8l9.1-4.8c9.3-3.8,20.2-6.1,30.2-5.3,9.9.7,18.9,5.2,24.4,13.5l9-5.3c-3.6-13.9-8.9-27.5-12-41.4-3-14.1-3.9-28.6,4.1-41.6-6.5,4.3-11.3,11.5-13.7,19.2-4.4,15.2-3.3,32.6,2.1,48.2-12-4.4-26.2-3.7-38.9,0,3.4-14.9,5.7-29.8,7.3-45,2.2-24.1,2.7-49.4-.4-74.1,13.3-2,27-2.3,40.3-.5Z"/>
</svg>