<?xml version="1.0" encoding="UTF-8"?>
<svg id="Layer_10" data-name="Layer 10" xmlns="http://www.w3.org/2000/svg" width="124.4mm" height="121.4mm" viewBox="0 0 352.5 344">
  <defs>
    <style>
      .cls-1 {
        fill: #fff;
        stroke-width: 0px;
      }
    </style>
  </defs>
  <path class="cls-1" d="M109.8,246c-34.3-44.5-43.4-105.8-26.8-159.1l10.5-30.2s-19.5,25.3-19.5,25.3c-22.2,29-29.7,66.2-28.6,102.3-10.9-19.6-14.2-43.4-14.6-65.7-.3-29.2,4-58.9,11.4-87.1,0,0,9.8-31.4,9.8-31.4,0,0-19.1,27-19.1,27C3.4,71.5-5.6,128,3.3,180.2c2,12.8,6.4,25.7,9.8,38,10.2,36.9,11.7,76.2-1.6,112.6,20.5-34.4,21.5-77.1,12.1-115.2-3.1-12.7-6.8-24.5-8.8-37.3-5.5-35-2.8-72,8.5-105.8,0,.2,0,.5-.1.7-5.4,44.3-6.6,96.8,24.8,132.6,0,0,11.2,12.2,11.2,12.2-1.2-9-3.2-22.2-3.4-31.3-.7-23,1.8-47,10-68.6-7.5,62.7,16.1,122,62.4,163.4-2.5-.5-5-1-7.4-1.6-21.8-5.1-43.3-13.2-61.5-26.6-3.6-2.7-7.1-5.7-10.4-8.8,24.3,27.9,61.2,42.5,96.7,50.2,0,0,16.1,0,16.1,0-19.1-14-38-29.6-52-48.7Z"/>
  <path class="cls-1" d="M179.6,213.8c2.3,13.5,3.4,27.3,3,41.1-.4,10.7-1.5,21.7-4,32.2-16.4-12.9-31.7-27.9-44.2-44.6,1.2-2,2.4-3.9,3.5-6,11.8-21.6,18.2-46.6,14.8-71.3-3.7-28.4-21.9-53-44.2-69.9,0,0-5.1-4-5.1-4-1.8,3.9-4.4,9-5.6,12.9-26.2,78.3,19,150.3,80.7,196,0,0,6.2,4.7,6.2,4.7,2.9-9.4,3.8-19.4,3.9-29,.3-17.6-1.9-35-6.2-52-.8-3.4-1.9-6.7-2.8-10ZM102.5,127.4c1.1-6.6,2.7-13.3,5-19.6,8.1,6.9,15.4,14.8,21.3,23.5,21.2,30.6,17.1,70.8-1,101.9-20.7-31-31.9-67.1-25.3-105.8Z"/>
  <path class="cls-1" d="M235,211.4c31.5-92.5-29.9-130.4-115.6-123.1,44.5,39.2,67.3,97.9,75.9,155.6,4.5,33.3,4.6,66.3,4.1,100.1,6.2-24.2,9-49.3,8.6-74.4,10.5-18.5,20.1-37.7,27-58.2ZM172.9,136.5c-8-13.8-17.1-27-28.2-38.5,26.1.6,54,6.5,72.4,25.1,31.2,33.4,10,87.8-10.1,126.5-3.4-39.6-14.8-78.6-34.1-113.1Z"/>
  <path class="cls-1" d="M328.3,156.5c-4.7.5-11.4,2.4-16,3.5-2.2.5-5.7,1.9-7.8,2.6-3.5,1.2-7,2.7-10.4,4.3,11.3-43.7,15-124.4-3.8-162.2,4.2,13.3,4.6,27.4,4.9,41.2.2,13.9-.4,27.7-1.5,41.5-2.3,27.6-6.8,54.9-13.7,81.3-.6,2.4-1.2,4.8-1.8,7.3-5.3,3.6-10.2,7.7-14.8,12.2,6-39.8-5.7-82.3-30.5-113.7,13.9,31.1,22.2,64.9,20,98.9-.4,7.6-1.5,15-3,22.4,0,0,0,0,0,.1,0,.4-.2.8-.3,1.3-1.6,6.8-9,36.8-23.4,54.1,6.3-6.9,18.9-21.3,28-34.7,0,0,0,0,.1,0,4.4-5.7,7.6-9,11.5-13.7,2.9-3.6,6.1-7.1,9.5-10.3-5.9,48.4,5.2,98.6,26.3,142-4.4-13.2-8-26.7-10.7-40.4-7.4-37.5-9.7-76.9-.3-114.1,7.1-4.9,14.6-9.2,22.4-12.8,1.3-.5,7.7-3.1,9.1-3.7,4.3-1.8,10.5-3.5,15.1-5.1,5.1-1.4,10.3-2.6,15.6-4-7.7.2-16.5.6-24.2,2.1Z"/>
  <path class="cls-1" d="M226.1,251.3c-2.4,2.6-3.9,4.2-3.9,4.2,1.3-1.3,2.6-2.7,3.9-4.2Z"/>
</svg>