<?xml version="1.0" encoding="UTF-8"?>
<svg id="Layer_10" data-name="Layer 10" xmlns="http://www.w3.org/2000/svg" width="124.4mm" height="122.1mm" viewBox="0 0 352.6 346.1">
  <defs>
    <style>
      .cls-1 {
        fill: #fff;
        stroke-width: 0px;
      }
    </style>
  </defs>
  <path class="cls-1" d="M131.5,200.4c-19.2-34-50.7-31.6-68.7-26.7,16.1-31.4,14.9-68.2-3.7-107.3C43.8,34.6,22.7,12.9,21.8,11.9l-4.1-4.2-3.7,4.6c-.5.6-44.8,63.9,26.5,158.1,2.8,3.8,5.6,7.8,8.2,12.1l.7,1.1.6,1c26.5,44.9,27.5,100,23.7,138.4l-1.5,14.7,10.4-10.5c3.1-3.2,76.3-78.1,48.9-126.8ZM48.9,164.1C22.5,129.3,9.3,93.6,10.7,60.8c.7-16.7,5.1-29.5,8.4-36.4,16,18.7,66,84.7,34,145.4-1.3-2-2.7-3.9-4.1-5.7ZM85.3,308.7c2-36.8-1.4-83.6-23.2-123.9,15.6-5.1,43.6-8.9,60.3,20.8,18,31.9-18.5,81.2-37.1,103.2Z"/>
  <path class="cls-1" d="M122.2,115.7c-3.4-16-16.6-33.7-31.7-40.5,2.7,8.7,7.3,15.8,12.7,22.7,5.5,6.8,11.4,12.9,18.9,17.8Z"/>
  <path class="cls-1" d="M128.8,289.5c-1.2,3-3.7,7.4-4.3,10.6,1.3-2.9,4.6-6.7,6.3-9.4,25-34.6,36.1-79.8,23-121.1-4.5-14.8-11.5-28.8-21-40.8,7.9,21.3,14.8,42.1,16.1,64.5,2.1,29.4-3.9,58.9-15.6,85.9-1.5,3.4-3,6.9-4.6,10.3Z"/>
  <path class="cls-1" d="M333.7,14.3l-4.3-14.3-5.5,13.9c-35,88.1-39.6,167.6-37.3,218.7,2.5,55.6,13.2,89.8,13.7,91.3l3.5,11.2,5.9-10.1c.8-1.4,19.7-34.1,32.3-88.9,11.6-50.5,19.5-130-8.3-221.7ZM331.9,233.3c-7.9,34.5-18.5,60.3-25.1,74.3-8.3-36.7-25.8-146,21.2-275.3,22,83,14.5,154.5,3.9,200.9Z"/>
  <path class="cls-1" d="M263.5,220.5c21.6-31.3,18.7-77.3,9.9-112.4-3.6-12.7-7.5-25-16.1-35.8l-5.7-7s-3.6,8.3-3.6,8.3c-18.9,48.4-23.1,103.8-14.3,156.2-2,.7-4,1.3-6.1,1.6-2.8.5-6.7,1.4-9.5,2.1-1.1.3-2.2.7-3.3,1.1,4.2-27.1,5.7-55.1,0-82.1-8.4-41.9-38.3-75.1-82.4-78.5,0,0-13-.5-13-.5,31.5,29.9,49.8,72.9,51.3,116.1,1.4,37.5-10,74.4-27.9,107.1-3.1,5.4-18.5,32.1-34.9,49.1,0,0,15.7-9.4,40-41.2,14.9-19.6,29.9-36.7,49.5-49.7,8.6-5.6,17.8-9.9,27.8-12,3.6-.5,7.1-1.3,10.4-2.4,4.5,21.9,11.2,43.2,20.2,63.1,2.2-3.1,6.8-8.7,8.3-12.2,9.2-18.7,11.7-39.8,12.2-60.4,0,0,0-9.3,0-9.3-2.8,20.2-7.4,41-17.8,58.7-5.1-14.5-9.2-29.4-12.2-44.5,6.7-3.8,12.6-8.9,17.2-15.6ZM203.5,239.2c-12.7,6.1-24,14.7-34,24.8,1.5-4.4,3-8.8,4.3-13.2,16.5-54.7,6.8-116.8-27.4-162.9-.2-.3-.5-.6-.7-.9,11,3,21.4,8.4,30,15.7,37.9,33.4,35.5,90.3,27.8,136.5ZM244.2,224.4c-.7-4.3-1.3-8.5-1.8-12.8-4.1-36-1.8-72.9,7.3-108,1.4-5.1,2.9-10.3,4.6-15.3,3.7,7.1,6.3,15.1,8.3,22.7,8,31.8,11.1,75.1-8.1,103.1-2.9,4.1-6.4,7.5-10.4,10.3Z"/>
</svg>